<?xml version="1.0" ?><svg viewBox="0 0 64 64" xmlns="http://www.w3.org/2000/svg"><g id="Contact_approved"><path d="M25.4792,25.8422a1.3449,1.3449,0,0,0,1.3438-1.3437V15.2626l-10.1494,10.58Z"/><path d="M40.3579,14.1066c0-.0847.011-.1668.0127-.2512H29.4714a1.28,1.28,0,0,1,.0508.2515V24.4985a4.0473,4.0473,0,0,1-4.043,4.0429h-10.1V58.9372a2.6736,2.6736,0,0,0,2.6736,2.6736H51.4941a2.6736,2.6736,0,0,0,2.6736-2.6736V25.8928a11.8652,11.8652,0,0,1-13.81-11.7862Zm-1.79,40.4524H34.5857a4.354,4.354,0,0,1-4.3272-3.9218L24.7712,54.33a1.35,1.35,0,0,1-1.5078-2.24l6.05-4.07a2.325,2.325,0,0,1,3.624,1.93v.2627A1.65,1.65,0,0,0,34.5857,51.86h3.9824a1.35,1.35,0,1,1,0,2.6992Zm0-11.8642H22.9812a1.35,1.35,0,0,1,0-2.6993H38.5681a1.35,1.35,0,0,1,0,2.6993ZM46.09,54.559H44.0388a1.35,1.35,0,0,1,0-2.6992H46.09a1.35,1.35,0,0,1,0,2.6992Zm0-18.1328H22.9812a1.35,1.35,0,0,1,0-2.6992H46.09a1.35,1.35,0,0,1,0,2.6992Z"/><path d="M14.8376,13.4955V4.26L4.6885,14.8393h8.8054A1.3449,1.3449,0,0,0,14.8376,13.4955Z"/><path d="M28.1731,11.1555H40.7419a11.8693,11.8693,0,0,1,1.4405-3.3643V5.5263a2.6736,2.6736,0,0,0-2.6736-2.6736H17.4861a1.2745,1.2745,0,0,1,.0508.2512V13.4955a4.0473,4.0473,0,0,1-4.043,4.043h-10.1v30.396a2.6736,2.6736,0,0,0,2.6736,2.6736h6.6118V27.192a2.7,2.7,0,0,1,.7515-1.8692L26.2246,11.9863A2.7,2.7,0,0,1,28.1731,11.1555Z"/><path d="M52.3044,4.86a9.2465,9.2465,0,1,0,9.2464,9.2465A9.2465,9.2465,0,0,0,52.3044,4.86Zm5.2832,7.1384L52.31,18.09a1.351,1.351,0,0,1-1.02.4658h-.0039a1.3517,1.3517,0,0,1-1.0215-.4707l-2.4893-2.9043a1.3505,1.3505,0,0,1,2.0508-1.7578l1.47,1.7148,4.251-4.9072a1.35,1.35,0,1,1,2.041,1.7676Z"/></g></svg>