<?xml version="1.0" ?><!DOCTYPE svg  PUBLIC '-//W3C//DTD SVG 1.1//EN'  'http://www.w3.org/Graphics/SVG/1.1/DTD/svg11.dtd'><svg enable-background="new 0 0 512 512" height="512px" id="QR_x5F_code_x5F_payment" version="1.1" viewBox="0 0 512 512" width="512px" xml:space="preserve" xmlns="http://www.w3.org/2000/svg" xmlns:xlink="http://www.w3.org/1999/xlink"><g><path d="M504.042,344.352c-0.04-8.891-7.25-16.09-16.14-16.09h-7.86v-27.34c0-2.561-2.08-4.641-4.64-4.641h-19.371v-27.38   c0-2.56-2.08-4.64-4.64-4.64H319.695v-23.57h76.297c2.209,0,4-1.79,4-4s-1.791-4-4-4h-76.297v-16.14h116.256c2.201,0,4-1.79,4-4   s-1.799-4-4-4H319.695v-79.924h28.326c2.209,0,4-1.791,4-4c0-2.209-1.791-4-4-4h-28.326V27.045   c0-10.371-8.416-18.787-18.787-18.787H58.533c-4.566,0-8.768,1.627-12.022,4.347c-2.465,2.053-4.396,4.736-5.55,7.797   c-0.789,2.064-1.214,4.299-1.214,6.643v93.583H11.948c-2.209,0-4,1.791-4,4c0,2.209,1.791,4,4,4h27.798v356.328   c0,10.371,8.416,18.787,18.787,18.787h242.375c10.371,0,18.787-8.416,18.787-18.787v-28.693h136.336v11.51c0,2.76,2.24,5,5,5   h25.281c9.789,0,17.739-7.939,17.739-17.74v-110.75C504.052,344.301,504.042,344.321,504.042,344.352z M203.699,24.248h16   c2.209,0,4,1.791,4,4s-1.791,4-4,4h-16c-2.209,0-4-1.791-4-4S201.49,24.248,203.699,24.248z M139.699,24.248h40   c2.209,0,4,1.791,4,4s-1.791,4-4,4h-40c-2.209,0-4-1.791-4-4S137.49,24.248,139.699,24.248z M179.684,484.311   c-5.366,0-9.715-4.35-9.715-9.715s4.35-9.715,9.715-9.715s9.715,4.35,9.715,9.715S185.05,484.311,179.684,484.311z    M303.701,120.627h-59.716c-2.209,0-4,1.791-4,4c0,2.209,1.791,4,4,4h59.716v313.15c0,3.569-2.899,6.469-6.469,6.469H62.172   c-3.58,0-6.47-2.899-6.47-6.469v-313.15h164.341c2.209,0,4-1.791,4-4c0-2.209-1.791-4-4-4H55.702V62.717   c0-3.57,2.89-6.47,6.47-6.47h235.061c3.569,0,6.469,2.9,6.469,6.47V120.627z M456.031,304.281h14.07c1.07,0,1.94,0.87,1.94,1.939   v22.041H319.695v-23.98h128.336H456.031z M446.092,272.262c1.07,0,1.939,0.869,1.939,1.939v22.08H319.695v-24.02H446.092z    M496.052,353.832c0,2.969-2.069,5.609-5,6.17c-0.97,0.189-1.979,0.289-3.01,0.289h-27.011c-2.76,0-5,2.24-5,5v82.971H319.695   v-112.01l167.196,0.01c0.55,0,1.101,0.049,1.62,0.14c0.53,0.101,1.04,0.239,1.53,0.409c0.28,0.101,0.56,0.221,0.819,0.351   c3.07,1.479,5.19,4.62,5.19,8.261V353.832z"/><path d="M371.579,360.285c-19.862,0-35.963,16.102-35.963,35.963s16.101,35.963,35.963,35.963s35.963-16.102,35.963-35.963   S391.441,360.285,371.579,360.285z M374.977,413.285v6.701h-6.43v-6.695c-6.051-0.934-9.551-4.616-9.959-9.764h7.639   c0.582,2.716,2.629,4.383,5.711,4.383c3.816,0,4.957-1.836,4.957-3.867c0-2.546-1.352-3.779-6.16-5.186   c-8.84-2.602-11.432-5.886-11.432-10.836c0-5.375,3.887-8.688,8.895-9.631v-5.881h6.386v5.843c6.408,1.002,8.817,4.952,9.187,9.184   h-7.643c-0.349-1.45-0.977-3.813-4.928-3.813c-3.207-0.001-4.182,1.903-4.182,3.53c0,2.25,1.199,3.264,6.795,4.886   c7.76,2.219,10.758,5.393,10.758,10.983C384.57,409.127,380.711,412.415,374.977,413.285z"/><path d="M456.012,216.553H475.9c2.209,0,4-1.791,4-4s-1.791-4-4-4h-19.889c-2.209,0-4,1.791-4,4S453.803,216.553,456.012,216.553z"/><path d="M83.822,185.17c2.209,0,4-1.791,4-4v-20.069h20.194c2.209,0,4-1.791,4-4s-1.791-4-4-4H83.822c-2.209,0-4,1.791-4,4v24.069   C79.822,183.379,81.613,185.17,83.822,185.17z"/><path d="M251.956,161.101h20.195v20.069c0,2.209,1.791,4,4,4s4-1.791,4-4v-24.069c0-2.209-1.791-4-4-4h-24.195   c-2.209,0-4,1.791-4,4S249.747,161.101,251.956,161.101z"/><path d="M108.017,352.801H87.822v-20.068c0-2.209-1.791-4-4-4s-4,1.791-4,4v24.068c0,2.209,1.791,4,4,4h24.194c2.209,0,4-1.791,4-4   S110.226,352.801,108.017,352.801z"/><path d="M276.009,328.836c-2.209,0-4,1.791-4,4v20.07h-20.195c-2.209,0-4,1.791-4,4s1.791,4,4,4h24.195c2.209,0,4-1.791,4-4v-24.07   C280.009,330.627,278.218,328.836,276.009,328.836z"/><path d="M143.897,176.83h-40.014v40.014h40.014V176.83z M135.988,208.82h-23.997v-23.879h23.997V208.82z"/><path d="M216.034,216.844h40.014V176.83h-40.014V216.844z M224.043,184.941h23.997v23.879h-23.997V184.941z"/><path d="M103.979,336.964h40.014v-40.015h-40.014V336.964z M111.991,305.004h23.997v23.88h-23.997V305.004z"/><path d="M255.996,296.938h-40.014v40.014h40.014V296.938z M248.04,328.884h-23.997v-23.88h23.997V328.884z"/><rect height="7.991" width="7.991" x="231.994" y="192.922"/><rect height="7.991" width="7.991" x="119.985" y="312.961"/><rect height="7.991" width="7.991" x="119.985" y="192.841"/><rect height="7.991" width="7.991" x="231.994" y="312.961"/><polygon points="135.993,272.851 135.993,240.949 135.993,239.592 135.993,225.196 103.979,225.196 103.979,240.949    127.976,240.949 127.976,272.851  "/><rect height="31.83" width="40.014" x="215.982" y="256.951"/><rect height="16" width="16" x="199.938" y="240.906"/><rect height="16" width="16" x="103.991" y="272.865"/><polygon points="199.865,227.263 199.865,225.073 199.865,192.931 199.865,192.922 199.865,184.941 183.911,184.941    183.911,176.952 152.003,176.952 152.003,184.941 167.957,184.941 167.957,192.922 167.957,192.931 167.957,225.073    144.003,225.073 144.003,241.073 199.865,241.073  "/><rect height="16" width="16" x="216.039" y="225.073"/><rect height="23.833" width="8.184" x="247.812" y="225.073"/><path d="M191.945,256.951h-40v15.914h-15.952v16h15.98v24.886h0.006v23.212h32v-23.979h23.979v-16.026v-4.494v-19.506   l-16.013-0.006V256.951z M183.958,312.963h-15.985v-40.012H184L183.958,312.963z"/></g></svg>