<?xml version="1.0" encoding="UTF-8"?>
<svg xmlns="http://www.w3.org/2000/svg" xmlns:xlink="http://www.w3.org/1999/xlink" width="2100" height="2100" viewBox="0 0 2100 2100">

<path fill-rule="nonzero" fill="rgb(0%, 0%, 0%)" fill-opacity="1" d="M 334.699219 1639.867188 C 270.886719 1525.703125 234.878906 1384.839844 234.878906 1249.367188 C 234.878906 842.398438 532.238281 499.898438 936.382812 441.359375 C 996.925781 432.589844 1105.730469 432.589844 1164.738281 441.359375 C 1397.558594 475.941406 1599.109375 603.449219 1729.710938 798.789062 C 1881.53125 1025.871094 1907.539062 1318.445312 1798.359375 1571.097656 C 1775.589844 1623.792969 1752.070312 1666.804688 1748.398438 1662.472656 C 1734.539062 1646.148438 1695.480469 1591.589844 1695.480469 1588.558594 C 1695.480469 1586.4375 1701.039062 1570.804688 1707.839844 1553.816406 C 1723.210938 1515.433594 1742.109375 1443.027344 1748.660156 1397.457031 C 1751.378906 1378.488281 1753.769531 1337.410156 1753.960938 1306.167969 L 1754.308594 1249.367188 L 1693.308594 1248.253906 L 1632.320312 1247.136719 L 1627.089844 1213.902344 C 1624.210938 1195.625 1621.539062 1178.84375 1621.140625 1176.613281 C 1620.730469 1174.339844 1646.898438 1169.046875 1680.609375 1164.585938 L 1740.808594 1156.621094 L 1738.070312 1138.078125 C 1730.890625 1089.488281 1685.019531 976.769531 1650 921.640625 L 1637.691406 902.261719 L 1622.96875 910.980469 C 1560.199219 948.148438 1524.640625 968.210938 1523.851562 966.910156 C 1523.339844 966.058594 1513.359375 954.101562 1501.679688 940.320312 C 1490 926.558594 1480.441406 914.46875 1480.441406 913.460938 C 1480.441406 912.460938 1503.269531 893.929688 1531.160156 872.289062 C 1559.050781 850.640625 1581.878906 831.589844 1581.878906 829.929688 C 1581.878906 824.679688 1499.75 746.539062 1472.441406 725.808594 C 1436.71875 698.679688 1382.230469 666.339844 1378.660156 670.140625 C 1377.058594 671.851562 1361.671875 697.890625 1344.46875 728.019531 C 1327.269531 758.140625 1312.511719 783.53125 1311.671875 784.429688 C 1310.058594 786.160156 1257.449219 765.140625 1252.269531 760.699219 C 1250.628906 759.289062 1260.339844 731.109375 1273.871094 698.078125 C 1287.390625 665.050781 1297.5 635.539062 1296.339844 632.5 C 1290.988281 618.570312 1171.960938 591.21875 1100.078125 587.398438 L 1050.378906 584.761719 L 1050.378906 654.121094 C 1050.378906 692.269531 1048.941406 724.371094 1047.191406 725.449219 C 1045.441406 726.53125 1030.378906 727.859375 1013.71875 728.398438 L 983.433594 729.390625 L 974.351562 661.121094 C 969.355469 623.578125 964.453125 592.050781 963.457031 591.058594 C 960.277344 587.878906 903.671875 598.820312 859.691406 611.121094 C 814.144531 623.859375 733.121094 656.308594 726.273438 664.558594 C 723.289062 668.160156 730.75 684.859375 752.878906 724.140625 C 769.792969 754.160156 784.40625 780.738281 785.355469 783.210938 C 787.59375 789.050781 729.714844 823.53125 726.332031 818.371094 C 724.925781 816.230469 706.578125 791.488281 685.558594 763.410156 L 647.347656 712.339844 L 630.789062 723.96875 C 605.949219 741.410156 554.710938 787.789062 530.324219 814.890625 C 503.113281 845.140625 462.261719 899.480469 464.28125 902.75 C 465.121094 904.109375 490.277344 919.480469 520.179688 936.910156 L 574.554688 968.601562 L 554.546875 1000.03125 L 534.542969 1031.460938 L 479.363281 1007.539062 C 449.015625 994.390625 421.894531 983.621094 419.097656 983.621094 C 413.894531 983.621094 388.0625 1045.910156 373.664062 1093.171875 C 363.113281 1127.796875 353.363281 1176.863281 349.269531 1215.898438 L 345.96875 1247.339844 L 466.433594 1247.339844 L 464.113281 1326.457031 L 405.285156 1334.585938 L 346.453125 1342.71875 L 347.746094 1365.015625 C 349.996094 1403.839844 368.074219 1484.347656 385.242188 1532 C 394.359375 1557.300781 402.832031 1581.285156 404.074219 1585.296875 C 405.378906 1589.515625 402.9375 1596.363281 398.289062 1601.527344 C 393.863281 1606.441406 380.933594 1622.78125 369.558594 1637.835938 L 348.867188 1665.214844 Z M 1009.808594 1431.855469 C 962.589844 1418.828125 919.445312 1376.164062 905.707031 1328.910156 C 895.941406 1295.3125 899.835938 1254.179688 915.875 1221.605469 C 940.339844 1171.910156 986.257812 1141.875 1042.769531 1138.601562 L 1073.859375 1136.800781 L 1105.390625 1085.570312 C 1122.738281 1057.390625 1158.691406 999.21875 1185.289062 956.308594 L 1233.640625 878.28125 L 1246.480469 884.808594 C 1253.550781 888.398438 1259.980469 891.910156 1260.769531 892.609375 C 1261.570312 893.300781 1235.5 955.320312 1202.851562 1030.429688 L 1143.480469 1167 L 1156.839844 1181.8125 C 1201.820312 1231.664062 1211.929688 1292.957031 1184.75 1351.042969 C 1154.398438 1415.898438 1078.710938 1450.863281 1009.808594 1431.855469 Z M 1009.808594 1431.855469 "/>
</svg>
