<?xml version="1.0" ?><svg id="Layer_1" style="enable-background:new 0 0 52 52;" version="1.1" viewBox="0 0 52 52" xml:space="preserve" xmlns="http://www.w3.org/2000/svg" xmlns:xlink="http://www.w3.org/1999/xlink"><style type="text/css">
	.st0{fill:#231F20;}
</style><g><g><path class="st0" d="M16.9662876,9.9600611c6.2350922-0.0004787,12.4701843-0.0009575,18.7052746-0.0014362    c-0.375-0.375-0.75-0.75-1.125-1.125c0.1341629,2.6690588,0.1919518,5.336731,0.1162949,8.0086889    c-0.0392342,1.3856754,0.3282738,3.0446606-1.2872314,3.7136726c-0.7631645,0.31604-3.1421776-0.0369701-3.9756737-0.0408344    c-4.9241505-0.0228291-6.3389435,1.636158-9.4079838,5.3922577c0.6401653,0.2651653,1.2803307,0.5303307,1.920496,0.7954941    c-0.119875-5.3845348,0.3564606-6.081171-4.9691105-6.2524052c0.375,0.375,0.75,0.75,1.125,1.125    c-0.0686417-4.0247555-0.0852184-8.048955-0.0497379-12.0741215c0.0127659-1.448205-2.2372227-1.449501-2.25,0    c-0.0354805,4.0251837-0.0189037,8.0493832,0.049737,12.0741215c0.0106192,0.6226597,0.5072775,1.1051369,1.125001,1.125    c1.0004158,0.0321655,1.7174091-0.1700611,2.362957,0.590229c0.6144066,0.7236099,0.3377857,2.5871334,0.3561535,3.4121761    c0.019886,0.8932095,1.2714233,1.5898743,1.920496,0.795496c0.9015694-1.1034031,1.9649563-3.0276127,3.2172909-3.7868519    c1.7082214-1.0356255,4.0200405-0.9523506,5.9249249-0.932785c1.2948055,0.0132999,4.248621,0.6291714,5.2921505-0.3429298    c1.0409584-0.9697056,0.7961121-3.0363617,0.8482132-4.2590389c0.1327972-3.116291,0.0875778-6.2286339-0.0689774-9.3431692    c-0.0305252-0.6073532-0.4906883-1.1250491-1.125-1.1250005c-6.2350903,0.0004787-12.4701824,0.000958-18.7052746,0.0014367    C15.5185251,7.7101722,15.5161171,9.9601727,16.9662876,9.9600611L16.9662876,9.9600611z"/></g><g><path class="st0" d="M22.2996216,16.2929459c1.4477673,0,1.4501667-2.25,0-2.25    C20.8518543,14.0429459,20.8494568,16.2929459,22.2996216,16.2929459L22.2996216,16.2929459z"/></g><g><path class="st0" d="M25.9662895,16.2096119c1.4477673,0,1.4501648-2.249999,0-2.249999    C24.5185204,13.9596128,24.5161228,16.2096119,25.9662895,16.2096119L25.9662895,16.2096119z"/></g><g><path class="st0" d="M29.9662895,16.0429459c1.4477673,0,1.4501648-2.25,0-2.25    C28.5185204,13.7929459,28.5161228,16.0429459,29.9662895,16.0429459L29.9662895,16.0429459z"/></g><g><path class="st0" d="M26.1329556,35.5429459c1.4477673,0,1.4501648-2.25,0-2.25    C24.6851883,33.2929459,24.6827888,35.5429459,26.1329556,35.5429459L26.1329556,35.5429459z"/></g><g><path class="st0" d="M6.8822503,3.2900295c6.0453753,0.0013433,12.0907516,0.0026867,18.1361275,0.00403    c5.7375278,0.0012748,12.4968281-0.9858873,18.1361256,0.00403c2.6871719,0.4717033,4.8260803,1.0643907,5.5183563,4.417418    c0.2359543,1.142849,0.0082932,2.6033583,0.0120201,3.7736664c0.0100212,3.144722,0.0200386,6.289444,0.030056,9.434166    c0.0090141,2.8302517,0.0180321,5.6605015,0.0270462,8.4907513c0.0075531,2.3699245,0.0727158,3.6637516-1.1360741,5.8529568    c-1.5445442,2.7972908-2.3878899,2.2084656-5.4002571,2.2512207c-5.9298248,0.0841637-11.8664055,0.0149193-17.7968903,0.022377    c-3.2957191,0.0041428-6.5914402,0.0082855-9.8871603,0.0124321c-2.9801512,0.003746-6.8826389,0.8066063-9.4337101-0.8426247    c-2.1578538-1.3950195-1.6852112-2.6314545-1.7506878-4.9859314c-0.0432911-1.5567093-0.0127783-3.1184559-0.0191588-4.6756058    c-0.0114954-2.8053627-0.0229907-5.6107273-0.0344861-8.41609c-0.0127728-3.1170702-0.0255454-6.2341404-0.0383182-9.3512106    c-0.0042901-1.0469627-0.3371522-2.753161-0.015327-3.7404838C4.3015242,2.2535474,5.8619142,3.050787,8.2159109,2.946017    c1.4421349-0.0641854,1.4500799-2.314539,0-2.25c-2.1001778,0.0934731-4.7597828-0.5460963-6.316432,1.2999916    C0.3512828,3.832072,0.9866564,7.186996,0.9952394,9.2816153c0.0178818,4.3638983,0.0357634,8.7277975,0.0536451,13.0916948    c0.0168678,4.1164494-0.565909,8.7529335,0.1362804,12.810688c1.1159613,6.4488258,8.2641659,4.6254539,13.3364353,4.6190796    c9.8403826-0.0123749,19.8336105,0.4671364,29.6614838-0.0372963c6.7704086-0.3475037,6.8282318-4.2836533,6.8088989-10.3516903    c-0.0140228-4.4026108-0.0280495-8.8052235-0.0420723-13.2078342c-0.0111504-3.4994211,0.555233-7.544488-0.1182404-11.0017309    c-1.2459297-6.3959203-10.6818695-4.157104-15.3134308-4.1581335C25.9729099,1.0442716,16.4275799,1.0421506,6.8822503,1.0400295    C5.4344692,1.0397078,5.4320989,3.2897072,6.8822503,3.2900295L6.8822503,3.2900295z"/></g><g><path class="st0" d="M2.8005335,30.4596272c15.4163418,0.168663,30.8326836,0.337326,46.2490234,0.5059872    c1.4482765,0.0158463,1.4493065-2.2341423,0-2.25c-15.4163399-0.1686611-30.8326817-0.3373241-46.2490234-0.5059872    C1.3522568,28.1937828,1.3512263,30.4437714,2.8005335,30.4596272L2.8005335,30.4596272z"/></g><g><path class="st0" d="M35.465126,48.4883308c-2.6066132,0.0385628-5.2132244,0.0771294-7.8198357,0.1156921    c-1.5639668,0.02314-3.1279335,0.0462799-4.6919003,0.069416c-1.0111465,0.0149612-3.1060047,0.5053062-3.9099178,0.0578461    c-0.9170933,0.2368584-1.0445518,0.0121651-0.3823814-0.6740761c0.3819122-0.9756851,1.1779633-1.4745598,2.3881531-1.496624    c1.2921314-0.3956299,2.670496-0.4901848,4.0078182-0.6010437c2.3574886-0.1954269,10.5553188-0.7232056,9.8609867,3.2585716    c-0.2469368,1.4161148,1.9209518,2.0242043,2.1696281,0.5981369c1.504261-8.6264687-16.151947-7.1626282-20.1629314-3.6871681    c-1.3049755,1.1307411-2.7906485,3.5569267-0.8634567,4.7570801c1.5990543,0.9958038,6.6962128,0.0401764,8.456068,0.0141411    c3.6492558-0.0539932,7.2985134-0.1079826,10.9477692-0.161972C36.9116554,50.7169304,36.9159012,48.4668655,35.465126,48.4883308    L35.465126,48.4883308z"/></g><g><path class="st0" d="M30.7588577,38.7935944c-1.3514042,1.5066452-2.0667992,3.4254951-1.9074936,5.4566231    c0.1124744,1.4340553,2.3634262,1.4461784,2.25,0c-0.1129856-1.4405632,0.2735577-2.7787132,1.2484818-3.8656349    C33.3142662,39.3093758,31.728159,37.7129402,30.7588577,38.7935944L30.7588577,38.7935944z"/></g><g><path class="st0" d="M19.5632973,39.8243256c1.7519512,0.9321213,1.9889431,2.8789368,1.5653629,4.6595993    c-0.3348675,1.4077263,1.8341408,2.008461,2.1696281,0.5981407c0.6506748-2.7353287,0.0612793-5.7849541-2.5993729-7.2005501    C19.4211445,37.201683,18.2831078,39.1432037,19.5632973,39.8243256L19.5632973,39.8243256z"/></g></g></svg>